<svg xmlns="http://www.w3.org/2000/svg" width="3072.000000pt" height="1203.000000pt" viewBox="0 0 3072.000000 1203.000000" preserveAspectRatio="xMidYMid meet">
<g fill-rule="evenodd" transform="translate(0.000000,1203.000000) scale(0.100000,-0.100000)"
fill="#19365A" stroke="none">
<path d="M10358 8802 c-31 -2 -61 -8 -66 -15 -5 -7 -31 -61 -57 -122 -26 -60
-60 -139 -77 -175 -16 -36 -38 -83 -48 -105 -44 -97 -130 -293 -130 -299 0 -3
-20 -49 -45 -102 -25 -53 -45 -98 -45 -100 0 -2 -17 -41 -39 -87 -106 -227
-152 -328 -176 -387 -14 -36 -35 -83 -46 -105 -31 -66 -230 -517 -244 -555 -7
-19 -33 -78 -58 -130 -25 -52 -72 -158 -105 -235 -34 -77 -95 -216 -138 -310
-42 -93 -89 -199 -104 -235 -15 -36 -41 -94 -58 -130 -16 -36 -65 -144 -107
-240 -42 -96 -83 -185 -91 -197 -8 -12 -14 -31 -14 -43 0 -20 4 -20 385 -20
l385 0 20 33 c11 17 27 52 36 77 9 25 27 68 39 95 31 69 82 193 150 365 34 88
66 154 81 168 l25 22 833 0 c881 0 845 2 859 -45 3 -11 26 -69 52 -130 25 -60
57 -139 71 -174 13 -36 28 -69 32 -75 5 -6 35 -76 67 -156 32 -80 65 -153 73
-162 14 -17 47 -18 419 -18 400 0 403 0 403 21 0 11 -9 37 -20 57 -11 20 -50
105 -86 187 -65 146 -82 186 -159 350 -46 100 -66 144 -100 220 -15 33 -35 78
-45 100 -10 22 -40 87 -65 145 -74 166 -165 370 -191 427 -13 28 -24 54 -24
57 0 4 -15 39 -34 79 -67 141 -109 233 -126 277 -10 25 -50 117 -90 205 -39
88 -97 216 -127 285 -57 129 -208 467 -248 555 -13 28 -49 109 -80 180 -32 72
-68 153 -80 180 -13 28 -42 94 -65 147 -23 53 -47 102 -54 107 -12 10 -555 20
-688 13z m314 -899 c18 -21 23 -31 131 -293 19 -47 46 -110 60 -140 36 -79 89
-200 137 -315 23 -55 63 -152 90 -215 102 -245 133 -331 121 -343 -9 -9 -158
-12 -564 -12 l-552 0 -4 25 c-1 14 4 38 13 55 8 16 44 102 79 190 36 88 88
210 116 271 28 61 51 114 51 118 0 6 126 303 185 436 14 30 39 91 56 135 42
110 52 120 81 88z"/>
<path d="M13230 8803 c-189 -3 -227 -6 -237 -19 -8 -11 -10 -458 -6 -1782 2
-972 6 -1773 8 -1779 3 -10 86 -13 370 -13 283 0 367 3 370 13 3 6 6 536 7
1176 3 1111 4 1164 21 1175 21 13 15 19 152 -159 89 -116 200 -259 300 -385
28 -36 79 -101 113 -145 213 -275 303 -391 371 -475 43 -52 104 -131 136 -175
33 -44 78 -102 101 -130 23 -27 90 -115 150 -194 106 -141 208 -274 289 -379
22 -29 75 -95 118 -148 42 -52 77 -98 77 -102 0 -4 13 -22 29 -40 l30 -32 334
0 c288 0 336 2 341 15 3 8 6 813 6 1789 0 1419 -2 1775 -12 1783 -8 6 -155 7
-378 4 l-365 -6 -2 -1139 c-1 -723 -5 -1142 -11 -1148 -19 -19 -32 -7 -147
148 -27 37 -84 108 -125 158 -103 124 -306 378 -357 445 -23 31 -57 76 -77
101 -19 25 -60 77 -90 115 -30 39 -74 94 -98 123 -81 101 -113 141 -178 227
-36 47 -106 137 -156 199 -50 62 -117 148 -150 192 -32 43 -95 124 -139 179
-106 132 -152 191 -236 303 -38 51 -81 97 -95 102 -14 6 -73 9 -132 8 -59 -2
-208 -4 -332 -5z"/>
<path d="M10863 4448 c-6 -8 -9 -124 -9 -283 l1 -270 35 0 35 0 -4 275 c-2
193 -6 277 -15 282 -17 11 -32 10 -43 -4z"/>
<path d="M12126 4447 c-12 -9 -17 -23 -14 -42 3 -27 7 -30 40 -33 33 -3 38 0
44 24 6 21 2 31 -16 46 -27 21 -31 22 -54 5z"/>
<path d="M13725 4446 c-86 -27 -125 -74 -125 -151 0 -71 36 -113 120 -140 30
-10 64 -21 75 -26 11 -4 37 -13 58 -19 41 -13 57 -34 57 -77 0 -40 -56 -83
-108 -83 -52 0 -130 28 -143 51 -11 21 -49 25 -67 7 -30 -30 -4 -61 88 -108
39 -20 55 -22 131 -18 73 5 93 10 118 29 40 32 61 78 61 134 0 92 -42 127
-189 161 -112 26 -155 94 -95 149 23 21 37 25 89 25 54 0 67 -4 100 -30 34
-27 40 -29 59 -17 52 35 10 86 -90 112 -69 18 -86 18 -139 1z"/>
<path d="M14565 4448 c-8 -27 -11 -527 -3 -542 11 -19 54 -21 64 -4 12 20 4
530 -8 545 -13 17 -47 17 -53 1z"/>
<path d="M18095 4447 c-15 -12 -17 -24 -13 -91 7 -103 -2 -114 -65 -86 -78 34
-162 12 -202 -53 -50 -83 -53 -161 -9 -249 28 -54 62 -76 134 -85 39 -4 56 -1
81 15 l32 20 39 -20 c67 -35 67 -34 63 274 -3 208 -7 273 -17 279 -18 12 -21
11 -43 -4z m-48 -259 c34 -33 35 -34 31 -107 -3 -70 -5 -75 -38 -102 -41 -35
-90 -38 -137 -9 -49 29 -63 103 -37 193 3 10 22 29 42 42 49 33 93 27 139 -17z"/>
<path d="M8675 4435 c-53 -21 -102 -69 -131 -130 -30 -63 -33 -172 -6 -247 22
-65 103 -149 159 -166 54 -16 146 -15 186 2 45 19 97 74 97 102 0 35 -36 41
-68 12 -49 -46 -76 -58 -122 -58 -118 1 -201 113 -185 250 12 101 65 167 143
177 66 9 112 -5 148 -44 27 -29 37 -34 59 -29 36 9 41 31 13 65 -54 67 -202
100 -293 66z"/>
<path d="M15700 4426 c-23 -26 -22 -56 3 -56 8 0 20 7 27 15 16 19 51 19 76 0
30 -22 90 -19 114 7 11 12 20 28 20 35 0 22 -29 27 -49 9 -22 -20 -60 -20 -85
-1 -31 23 -79 19 -106 -9z"/>
<path d="M17135 4428 c-3 -7 -4 -128 -3 -267 3 -229 5 -255 21 -265 12 -8 22
-8 35 0 15 10 17 35 17 275 l0 264 -33 3 c-20 2 -34 -2 -37 -10z"/>
<path d="M19157 4403 c-4 -3 -7 -23 -7 -42 0 -43 -23 -81 -49 -81 -20 0 -31
-17 -24 -37 3 -7 13 -13 23 -13 36 0 45 -28 46 -150 1 -102 4 -122 23 -153 19
-30 28 -36 72 -42 33 -5 54 -3 64 5 31 25 11 70 -31 70 -38 0 -48 26 -52 131
-5 110 2 129 48 129 15 0 33 6 39 14 17 20 2 46 -26 46 -46 0 -63 17 -63 63 0
24 -5 48 -12 55 -13 13 -41 16 -51 5z"/>
<path d="M11088 4378 c-1 -7 -2 -26 -2 -43 -1 -24 -8 -33 -38 -47 -49 -23 -52
-54 -6 -66 30 -8 34 -13 40 -58 4 -27 6 -87 4 -133 -3 -79 -2 -85 23 -111 46
-50 166 -44 147 7 -3 8 -6 17 -6 19 0 2 -13 4 -28 4 -50 0 -61 24 -67 142 -6
118 -3 124 55 130 30 3 35 7 35 28 0 21 -5 26 -33 28 -36 4 -68 41 -58 67 10
26 -5 45 -35 45 -16 0 -30 -6 -31 -12z"/>
<path d="M13105 4292 c-98 -10 -154 -75 -163 -191 -9 -133 52 -205 185 -217
65 -6 70 -5 111 25 76 56 47 98 -37 55 -39 -21 -57 -25 -89 -19 -46 7 -106 62
-100 91 3 17 16 19 143 22 166 3 170 5 148 85 -26 91 -115 158 -198 149z m83
-83 c43 -32 55 -67 30 -86 -22 -17 -175 -10 -193 8 -37 36 30 102 111 108 5 1
29 -13 52 -30z"/>
<path d="M9170 4269 c-64 -29 -105 -95 -104 -166 2 -81 13 -120 41 -153 35
-43 76 -61 137 -63 79 -1 121 18 167 75 36 46 39 54 39 115 0 54 -5 74 -30
118 -25 43 -39 56 -81 74 -64 26 -111 26 -169 0z m153 -61 c29 -15 54 -86 51
-142 -3 -40 -9 -56 -36 -83 -27 -28 -39 -33 -79 -33 -36 0 -55 6 -77 25 -73
61 -53 209 33 246 22 9 79 3 108 -13z"/>
<path d="M9566 4274 c-14 -14 -16 -42 -14 -197 l3 -182 35 0 35 0 5 137 c5
132 6 139 31 164 39 39 102 39 135 1 21 -25 24 -39 26 -125 1 -53 0 -114 -1
-134 -2 -32 2 -40 23 -49 20 -9 29 -9 42 2 14 11 15 33 12 160 -4 121 -8 151
-24 179 -34 59 -128 74 -206 34 -26 -13 -32 -14 -46 -1 -30 25 -40 27 -56 11z"/>
<path d="M10064 4274 c-60 -31 -82 -108 -45 -156 21 -26 64 -47 145 -70 62
-17 76 -37 53 -72 -15 -22 -25 -26 -67 -26 -27 0 -65 7 -84 16 -41 20 -66 13
-66 -19 0 -32 14 -42 77 -57 151 -35 268 56 206 160 -17 30 -97 70 -138 70
-32 0 -75 37 -75 65 0 15 10 31 26 42 23 14 32 15 77 4 111 -26 109 -26 105 0
-4 32 -49 52 -123 56 -40 2 -70 -2 -91 -13z"/>
<path d="M11455 4278 c-60 -21 -117 -92 -129 -161 -8 -45 14 -132 44 -169 27
-35 101 -68 150 -68 63 0 135 42 170 98 25 41 29 55 26 108 -6 145 -132 237
-261 192z m122 -68 c18 -11 39 -36 48 -56 52 -126 -41 -244 -154 -193 -95 42
-95 201 -1 251 44 23 67 23 107 -2z"/>
<path d="M11948 4268 c-37 -21 -38 -21 -72 -3 -24 13 -39 16 -46 9 -5 -5 -13
-87 -16 -181 -8 -186 -4 -203 42 -203 29 0 26 -12 28 132 2 140 14 164 91 189
56 18 75 39 56 63 -18 21 -39 20 -83 -6z"/>
<path d="M12393 4277 c-35 -13 -73 -42 -73 -56 0 -5 6 -14 14 -20 11 -10 23
-8 56 9 59 30 126 25 154 -13 25 -34 13 -61 -30 -65 -67 -5 -151 -26 -175 -43
-14 -10 -31 -36 -39 -58 -12 -36 -11 -45 6 -82 12 -29 29 -46 51 -55 48 -20
112 -17 152 7 l34 21 30 -23 c23 -16 34 -19 46 -12 24 16 19 291 -6 334 -34
57 -141 84 -220 56z m161 -219 c26 -42 -43 -118 -107 -118 -34 0 -77 34 -77
61 0 34 35 62 86 70 67 9 85 7 98 -13z"/>
<path d="M14190 4278 c-104 -29 -153 -182 -96 -304 29 -63 75 -89 156 -89 71
0 101 9 140 41 45 39 63 80 64 149 1 152 -119 244 -264 203z m146 -79 c51 -47
48 -162 -6 -219 -40 -43 -91 -42 -144 3 -34 29 -39 40 -44 85 -6 62 9 103 50
138 26 21 37 24 76 19 27 -3 55 -14 68 -26z"/>
<path d="M14762 4278 c-15 -15 -16 -267 -2 -320 7 -22 23 -46 41 -59 26 -18
40 -21 91 -16 33 3 67 12 77 21 22 20 45 20 61 0 8 -8 25 -14 39 -12 l26 3 -2
189 c-2 198 -6 216 -45 195 -16 -8 -18 -24 -19 -117 0 -141 -11 -170 -72 -201
-41 -20 -51 -22 -77 -11 -16 7 -34 17 -39 24 -5 6 -12 76 -15 155 -3 78 -9
147 -12 152 -8 13 -38 11 -52 -3z"/>
<path d="M15293 4271 c-49 -27 -78 -70 -92 -134 -20 -90 -3 -141 67 -213 31
-32 62 -67 67 -78 6 -11 21 -23 35 -26 16 -4 25 -13 25 -25 0 -16 -7 -20 -37
-20 -41 0 -68 -19 -52 -35 6 -6 33 -13 61 -17 46 -5 54 -3 77 20 34 34 34 70
-1 95 -23 17 -25 22 -14 36 7 9 19 16 25 16 23 0 86 51 86 70 0 42 -66 46 -99
6 -17 -20 -73 -21 -111 -1 -57 29 -81 124 -49 190 19 39 74 75 115 75 20 0 44
-9 62 -25 35 -30 58 -32 71 -7 12 22 4 35 -39 67 -28 21 -45 25 -99 24 -44 0
-77 -6 -98 -18z"/>
<path d="M15810 4284 c-8 -1 -32 -5 -53 -9 -56 -9 -112 -64 -131 -127 -11 -39
-12 -64 -5 -112 9 -53 16 -67 53 -105 42 -41 47 -44 113 -48 57 -5 76 -2 110
16 54 27 90 74 105 139 20 88 -24 187 -100 226 -32 16 -71 24 -92 20z m43 -67
c35 -15 77 -85 77 -128 -1 -42 -37 -107 -69 -123 -45 -24 -97 -20 -126 8 -35
35 -50 100 -36 156 15 54 34 77 75 89 43 13 43 13 79 -2z"/>
<path d="M16170 4265 c-91 -47 -121 -180 -65 -284 50 -91 178 -129 270 -80 44
24 55 35 55 61 0 28 -39 33 -71 9 -42 -32 -118 -29 -159 5 -23 20 -30 34 -28
53 l3 26 133 1 c81 0 137 5 143 11 7 7 9 30 4 62 -18 133 -161 201 -285 136z
m177 -67 c60 -58 38 -81 -78 -80 -95 0 -116 12 -100 55 6 15 25 36 43 47 44
28 91 20 135 -22z"/>
<path d="M16593 4270 c-62 -37 -80 -122 -35 -163 18 -16 105 -51 154 -61 54
-12 61 -78 10 -97 -33 -13 -101 -3 -123 17 -24 21 -63 14 -67 -12 -6 -42 64
-74 166 -74 61 0 66 2 103 39 50 50 53 94 9 144 -22 26 -42 36 -87 46 -86 18
-107 31 -111 68 -2 23 3 35 20 47 30 21 61 20 109 -5 46 -23 69 -19 69 11 0
54 -148 82 -217 40z"/>
<path d="M17471 4270 c-40 -19 -46 -19 -67 -5 -33 21 -53 19 -63 -7 -11 -31
-13 -339 -2 -356 4 -8 21 -12 37 -10 l29 3 5 138 5 139 29 23 c17 13 40 26 53
30 34 8 91 -20 103 -50 5 -14 9 -82 9 -152 -1 -96 2 -127 12 -134 13 -8 47 -3
59 8 11 10 -2 288 -15 319 -28 67 -115 91 -194 54z"/>
<path d="M18280 4271 c-16 -31 -13 -296 4 -330 34 -64 117 -82 199 -42 l48 23
20 -21 c24 -25 33 -26 54 -5 13 14 16 40 15 163 -1 80 -4 160 -7 178 -10 61
-76 51 -72 -11 1 -17 1 -71 0 -119 -1 -87 -2 -90 -35 -123 -43 -43 -94 -47
-131 -9 -23 22 -25 32 -26 122 -3 168 -3 173 -19 183 -23 15 -38 12 -50 -9z"/>
<path d="M18835 4283 c-118 -29 -150 -128 -62 -193 23 -16 50 -30 60 -30 38 0
98 -24 108 -42 35 -64 -70 -103 -155 -57 -47 25 -68 19 -64 -18 2 -22 12 -31
48 -45 101 -38 210 -15 245 52 23 44 18 73 -18 112 -25 28 -47 39 -106 54 -53
14 -78 26 -89 42 -14 22 -13 25 11 50 31 31 76 33 126 7 38 -19 61 -14 61 13
0 25 -15 36 -66 50 -42 12 -64 13 -99 5z"/>
<path d="M19542 4269 c-40 -20 -44 -21 -62 -4 -10 9 -29 15 -42 13 l-23 -3 0
-190 0 -190 24 -3 c40 -6 46 11 43 117 -3 83 -1 104 16 138 26 49 37 59 84 67
42 8 62 32 47 59 -13 23 -35 21 -87 -4z"/>
<path d="M20015 4281 c-79 -29 -104 -49 -89 -72 8 -14 57 -10 78 6 52 39 160
1 154 -54 -3 -25 -7 -26 -73 -32 -82 -7 -120 -21 -157 -57 -23 -21 -28 -34
-28 -75 0 -68 35 -102 113 -112 47 -6 61 -4 96 16 38 21 42 21 59 6 10 -9 31
-17 46 -17 l28 0 -4 143 c-5 174 -17 209 -85 238 -45 19 -101 23 -138 10z
m143 -243 c2 -18 -6 -37 -26 -59 -25 -28 -36 -33 -77 -33 -40 -1 -50 3 -68 26
-19 25 -19 28 -3 52 19 30 64 45 126 43 41 -2 45 -5 48 -29z"/>
<path d="M20388 4283 c-19 -5 -20 -8 -23 -68 -7 -160 -6 -308 3 -317 5 -5 22
-8 38 -6 l29 3 -3 185 c-2 191 -7 211 -44 203z"/>
<path d="M20615 4278 c-51 -28 -65 -50 -65 -103 0 -41 5 -56 23 -72 22 -21
104 -53 135 -53 26 0 62 -29 62 -50 0 -10 -12 -28 -27 -40 -23 -18 -35 -20
-73 -15 -25 4 -57 14 -71 22 -59 35 -81 -17 -27 -62 30 -25 36 -27 120 -23 82
3 90 5 117 33 19 19 33 45 36 70 11 66 -35 108 -155 140 -31 8 -50 20 -60 39
-14 26 -14 28 13 51 30 26 65 26 120 -2 50 -25 89 5 50 39 -45 37 -153 51
-198 26z"/>
<path d="M10397 4274 c-4 -4 -7 -72 -7 -151 0 -163 10 -202 59 -227 43 -23
122 -21 154 4 30 24 41 25 57 4 8 -8 25 -14 39 -12 l26 3 3 173 c3 185 -3 216
-41 210 -21 -3 -22 -9 -27 -128 -6 -142 -15 -166 -74 -194 -32 -15 -39 -15
-64 -2 -16 8 -33 21 -39 28 -6 7 -15 76 -20 153 -8 140 -8 140 -33 143 -14 2
-29 0 -33 -4z"/>
<path d="M12133 4268 c-5 -7 -11 -85 -12 -172 -1 -87 -4 -163 -7 -168 -3 -5 0
-15 6 -23 15 -18 70 -20 71 -2 5 76 -5 355 -13 364 -13 16 -33 17 -45 1z"/>
<path d="M19747 4268 c-13 -11 -16 -39 -18 -187 -2 -159 -1 -175 16 -187 22
-16 25 -17 44 -5 11 7 13 44 12 182 -2 198 -11 229 -54 197z"/>
</g>
<g fill-rule="evenodd" transform="translate(0.000000,1203.000000) scale(0.100000,-0.100000)"
fill="#0AC8D4" stroke="none">
<path d="M19386 8800 c-32 -4 -54 -13 -65 -27 -39 -49 -89 -120 -121 -173 -19
-31 -51 -76 -70 -100 -19 -24 -46 -62 -60 -85 -39 -66 -86 -136 -123 -185 -19
-25 -49 -67 -69 -95 -19 -27 -60 -87 -91 -132 -31 -45 -57 -85 -57 -88 0 -14
-192 -271 -218 -292 -23 -18 -52 -16 -59 5 -4 9 -19 32 -35 50 -16 18 -42 57
-59 85 -16 29 -45 72 -64 97 -19 25 -44 61 -55 82 -11 20 -32 50 -48 68 -16
17 -49 66 -75 108 -25 43 -55 86 -66 97 -12 10 -21 22 -21 27 0 6 -26 45 -57
88 -32 44 -74 102 -93 130 -19 29 -45 64 -57 79 -12 16 -34 50 -47 77 -28 56
-118 166 -144 176 -9 4 -200 7 -423 7 -467 1 -456 3 -424 -70 11 -23 33 -60
50 -80 16 -21 46 -61 65 -89 19 -28 46 -66 60 -85 14 -19 35 -49 48 -67 13
-18 46 -64 75 -102 55 -72 57 -75 97 -141 14 -22 42 -63 63 -90 21 -28 60 -84
88 -125 28 -41 74 -109 104 -150 30 -41 74 -102 97 -135 23 -33 59 -81 80
-106 21 -25 38 -49 38 -53 0 -9 63 -98 177 -251 33 -45 69 -95 78 -111 9 -16
27 -47 40 -69 44 -72 38 -89 -90 -265 -33 -45 -76 -105 -95 -134 -19 -28 -54
-76 -78 -105 -24 -30 -52 -71 -63 -90 -11 -20 -38 -61 -60 -91 -22 -30 -48
-66 -57 -80 -9 -14 -35 -48 -57 -77 -63 -80 -147 -198 -269 -373 -25 -36 -53
-76 -63 -90 -43 -62 -244 -329 -277 -368 -20 -24 -36 -50 -36 -57 0 -7 -12
-34 -26 -59 -19 -34 -23 -51 -16 -58 12 -12 669 -22 789 -12 l72 6 48 62 c26
33 58 81 71 105 13 24 44 68 68 97 24 30 51 69 60 87 9 17 37 57 61 87 51 63
237 329 257 369 8 14 23 35 35 45 12 11 21 25 21 32 0 7 13 28 28 46 16 18 45
61 66 95 58 98 126 183 145 183 30 0 72 -54 221 -280 89 -135 163 -242 194
-280 27 -33 85 -119 151 -224 33 -53 177 -255 220 -308 22 -28 48 -63 58 -79
31 -49 56 -51 492 -42 453 9 433 4 376 88 -17 26 -31 50 -31 55 0 5 -13 24
-28 42 -16 18 -50 65 -77 103 -27 39 -70 95 -95 125 -25 30 -51 67 -57 81 -6
15 -25 42 -41 60 -16 19 -43 55 -58 80 -35 56 -99 144 -177 244 -31 40 -64 86
-72 102 -8 15 -28 44 -45 63 -17 19 -53 69 -80 110 -28 41 -66 98 -85 125 -19
28 -59 86 -89 130 -30 44 -68 96 -84 115 -16 19 -37 49 -47 65 -10 17 -31 44
-45 60 -44 50 -90 130 -90 157 0 23 37 82 125 198 48 64 141 195 178 250 20
30 50 73 66 95 17 22 46 63 65 90 19 28 55 77 80 110 25 33 67 93 95 133 28
40 72 100 98 134 26 35 77 106 113 159 36 53 90 130 121 171 31 40 62 85 69
98 7 14 30 48 52 75 80 103 166 250 153 264 -8 8 -753 9 -819 1z"/>
</g>
</svg>
